<?xml version="1.0" standalone="no"?>
<!DOCTYPE svg PUBLIC "-//W3C//DTD SVG 20010904//EN"
 "http://www.w3.org/TR/2001/REC-SVG-20010904/DTD/svg10.dtd">
<svg version="1.0" xmlns="http://www.w3.org/2000/svg"
 width="484.000000pt" height="484.000000pt" viewBox="0 0 484.000000 484.000000"
 preserveAspectRatio="xMidYMid meet">
<metadata>
Created by potrace 1.11, written by Peter Selinger 2001-2013
</metadata>
<g transform="translate(0.000000,484.000000) scale(0.100000,-0.100000)"
fill="#000000" stroke="none">
<path d="M1926 4477 c-25 -25 -47 -37 -83 -42 -26 -5 -54 -7 -61 -6 -16 3
-101 -28 -121 -43 -16 -12 -71 -128 -71 -149 0 -8 -13 -31 -29 -51 -16 -20
-39 -69 -51 -109 -12 -39 -27 -81 -34 -92 -26 -43 -59 -152 -71 -235 -4 -24
-9 -48 -11 -52 -2 -4 -7 -33 -10 -65 -4 -32 -10 -68 -15 -82 -5 -13 -8 -26 -5
-28 2 -3 -2 -23 -10 -45 -8 -23 -12 -43 -10 -45 3 -3 -2 -24 -10 -46 -30 -83
-66 -320 -79 -517 -8 -124 -9 -425 -1 -438 7 -11 9 -500 3 -807 -4 -220 0
-261 39 -360 20 -52 30 -86 33 -117 1 -5 11 -18 22 -29 15 -15 28 -51 41 -118
10 -53 33 -132 50 -176 32 -80 54 -109 210 -275 81 -87 200 -150 307 -165 30
-4 69 -14 88 -21 39 -17 60 -10 42 13 -21 25 -65 42 -125 49 -32 4 -69 13 -83
21 -15 7 -31 13 -36 13 -19 0 -148 89 -193 133 -24 23 -52 58 -62 78 -11 20
-26 39 -35 43 -34 13 -104 208 -130 366 -46 267 -46 239 1 650 20 173 35 379
37 500 2 82 5 97 24 116 19 19 21 30 17 84 -2 34 -9 80 -15 103 -14 53 2 72
47 55 66 -24 88 23 55 118 -20 59 -20 59 -1 76 13 11 20 29 20 54 l0 37 68
-65 c37 -36 90 -77 117 -91 39 -20 57 -38 85 -85 27 -47 50 -70 111 -111 42
-29 87 -64 101 -79 41 -45 68 -126 68 -203 0 -137 -57 -400 -118 -544 -13 -33
-29 -76 -34 -95 -24 -91 -49 -208 -53 -240 -2 -19 -9 -88 -16 -153 -11 -104
-11 -133 4 -243 18 -128 36 -182 89 -260 15 -23 28 -49 28 -59 0 -9 4 -13 10
-10 5 3 8 0 5 -7 -3 -7 17 -44 43 -83 37 -53 56 -71 76 -73 40 -5 33 27 -16
75 -66 63 -98 108 -98 137 0 15 -11 48 -25 74 -14 26 -25 54 -25 64 0 9 -4 19
-9 22 -11 7 -30 131 -36 234 -9 162 46 463 111 609 8 18 23 65 34 105 10 40
26 96 34 125 24 77 46 237 46 335 0 77 -4 95 -31 153 -25 51 -45 76 -93 113
-33 27 -69 51 -78 55 -10 3 -28 22 -40 41 -13 19 -33 40 -45 45 -12 6 -29 23
-37 39 -9 17 -36 39 -69 56 -47 24 -173 139 -200 183 -8 13 58 -11 81 -29 7
-6 28 -8 47 -5 31 5 39 1 86 -46 28 -29 69 -75 90 -103 20 -28 64 -73 95 -100
32 -27 69 -61 83 -77 15 -15 41 -30 60 -34 32 -6 34 -5 27 18 -3 13 -9 51 -13
83 -9 84 -62 172 -198 327 -45 52 -100 149 -85 149 6 0 13 -6 16 -13 2 -7 28
-30 57 -51 29 -21 63 -53 77 -72 14 -19 37 -41 53 -50 15 -8 39 -32 53 -54 15
-22 33 -40 40 -40 24 0 -11 68 -64 124 -26 28 -54 60 -62 71 -8 11 -33 34 -55
52 -50 39 -155 142 -155 152 0 4 -9 17 -21 30 l-21 22 -24 -22 c-32 -30 -30
-48 9 -100 18 -24 45 -69 60 -99 26 -55 155 -215 203 -253 39 -30 76 -112 72
-159 l-3 -40 -90 92 c-229 233 -299 300 -316 300 -23 0 -24 -13 -3 -45 20 -31
18 -31 -48 1 -29 15 -63 31 -75 37 -13 6 -21 12 -18 15 2 2 -2 20 -10 39 -20
46 -19 48 10 61 21 10 25 18 25 58 0 26 -7 82 -16 126 -15 72 -15 82 0 112 15
31 15 42 -3 142 -10 60 -20 114 -21 119 -8 33 3 75 25 99 13 14 27 26 30 25 3
-1 19 1 35 4 24 5 29 12 32 39 l3 33 21 -41 c13 -23 20 -51 17 -65 -2 -13 9
-66 26 -117 25 -74 29 -97 20 -113 -16 -30 -4 -61 38 -105 85 -88 163 -183
163 -199 0 -7 99 -154 175 -260 53 -74 83 -96 92 -69 2 6 -38 71 -89 145 -51
74 -114 166 -139 204 -26 39 -79 108 -117 154 -61 73 -70 88 -65 115 3 21 -4
51 -21 90 -27 60 -38 124 -14 81 6 -11 18 -29 28 -40 9 -11 25 -45 34 -75 10
-30 31 -75 46 -100 30 -45 44 -62 120 -135 23 -22 51 -57 63 -78 16 -29 25
-36 41 -31 21 6 21 6 2 -9 -19 -14 -19 -16 12 -63 65 -98 76 -108 114 -98 31
9 33 13 36 59 2 28 7 54 13 60 19 19 6 131 -13 119 -12 -7 -1 34 13 52 6 7 3
37 -6 75 -8 35 -15 75 -15 89 0 25 -33 138 -97 330 -19 58 -37 114 -39 124 -5
25 -65 116 -110 166 -21 24 -31 40 -23 40 9 1 7 6 -6 17 l-20 16 20 -7 c38
-14 40 -12 37 42 -2 45 0 52 16 52 10 0 22 -4 28 -9 5 -5 26 -14 47 -21 21 -6
50 -22 65 -34 15 -13 47 -33 72 -46 l44 -23 29 34 c22 27 27 41 23 67 -7 46
12 41 70 -18 27 -27 54 -50 60 -50 19 0 24 -54 25 -315 1 -164 -2 -260 -10
-278 -6 -16 -11 -55 -11 -88 0 -77 -16 -77 -53 -1 -44 92 -82 159 -101 178
-15 15 -21 15 -38 5 -17 -11 -19 -10 -10 5 5 9 6 32 1 53 -4 20 -11 59 -14 86
-15 127 -31 182 -55 190 -10 3 -35 30 -55 60 -36 55 -69 83 -79 66 -8 -13 74
-122 86 -115 7 5 8 2 3 -5 -4 -7 1 -22 13 -34 23 -25 29 -43 41 -137 34 -246
57 -342 80 -338 23 5 24 26 2 45 -12 9 -21 22 -21 28 0 5 4 3 10 -5 14 -22 20
-8 11 26 -5 16 -13 28 -20 27 -6 -2 -11 2 -11 7 0 6 9 10 20 10 11 0 20 -6 20
-12 0 -11 28 -68 108 -223 12 -22 27 -55 34 -73 17 -44 53 -42 53 3 0 17 4 50
7 75 4 25 10 71 13 103 2 32 9 66 15 77 5 10 10 42 10 70 0 42 -3 51 -15 46
-8 -3 -15 -1 -15 4 0 6 6 10 14 10 11 0 13 21 10 103 -13 385 -13 391 -29 399
-24 14 -18 37 12 49 21 8 37 6 74 -10 27 -11 58 -17 70 -14 14 4 20 2 16 -4
-7 -11 63 -80 76 -75 5 1 6 -1 4 -5 -7 -11 20 -46 30 -40 5 3 10 -4 10 -15 2
-25 38 -65 77 -85 26 -14 31 -13 56 5 73 55 103 22 97 -108 -3 -68 -1 -87 12
-96 14 -11 14 -17 -2 -66 -9 -30 -17 -65 -17 -77 0 -30 18 -61 35 -61 23 0 65
22 59 31 -3 5 -2 9 3 9 9 0 37 -113 54 -215 6 -38 14 -89 19 -112 4 -23 8 -86
9 -139 2 -109 15 -168 60 -274 24 -56 29 -75 19 -81 -10 -7 -10 -15 1 -41 11
-28 27 -94 33 -133 1 -5 -4 -39 -11 -75 -15 -79 -9 -161 14 -196 27 -42 14
-87 -39 -138 -54 -51 -56 -62 -20 -168 l26 -77 -20 -39 c-35 -68 -37 -113 -7
-173 30 -59 29 -93 -5 -163 -12 -27 -20 -62 -20 -97 0 -87 -42 -213 -106 -314
-17 -27 -38 -72 -47 -99 -16 -46 -16 -49 3 -74 11 -13 20 -36 20 -50 0 -37
-38 -157 -70 -221 -15 -31 -35 -72 -44 -91 -9 -19 -32 -52 -52 -74 -35 -38
-39 -66 -9 -66 40 0 177 240 210 367 17 66 20 139 5 148 -19 12 -10 60 20 115
87 155 125 253 123 315 -2 33 23 137 39 172 14 28 3 125 -18 165 -17 34 -16
47 14 126 l21 54 -26 79 c-28 88 -26 119 11 139 30 16 41 40 24 52 -10 6 -10
8 -1 8 21 0 36 -42 40 -110 2 -36 7 -90 12 -120 6 -30 15 -89 22 -130 6 -41
15 -96 20 -123 5 -29 4 -59 -3 -78 -8 -24 -7 -33 5 -47 11 -12 16 -43 17 -112
4 -185 -16 -338 -65 -492 -14 -42 -25 -82 -25 -87 0 -6 -17 -37 -37 -68 -21
-32 -46 -75 -57 -96 -23 -47 -239 -283 -275 -301 -14 -7 -39 -16 -56 -20 -27
-6 -62 -20 -117 -47 -18 -9 -158 -13 -158 -4 0 2 12 21 26 42 14 21 35 58 46
83 11 25 32 70 48 100 28 56 43 103 86 265 30 113 34 311 8 409 -14 51 -15 95
-10 266 3 113 10 228 15 255 5 28 14 77 20 110 5 33 19 84 30 114 11 30 18 57
16 61 -3 4 5 10 16 13 15 4 20 11 15 22 -3 9 15 59 43 118 27 56 62 140 78
187 15 47 30 87 33 90 11 9 50 68 50 74 0 3 -9 6 -19 6 -18 0 -19 5 -14 68 5
58 3 70 -15 92 -31 38 -42 17 -30 -56 9 -51 8 -66 -5 -90 -22 -41 -38 -76 -42
-94 -2 -8 -13 -37 -24 -63 -12 -27 -21 -53 -21 -58 0 -18 -117 -157 -125 -147
-1 2 2 41 6 88 5 57 17 105 35 145 14 33 33 82 41 110 8 27 30 81 48 120 40
85 51 123 59 197 6 52 4 57 -11 52 -14 -5 -15 -4 -4 4 20 14 60 153 67 233 8
77 0 119 -22 119 -12 0 -15 -13 -14 -67 1 -45 -5 -90 -19 -133 -11 -36 -28
-117 -37 -180 -13 -92 -25 -134 -59 -210 -24 -52 -49 -115 -56 -140 -7 -25
-19 -48 -25 -53 -12 -7 -30 -74 -38 -142 -15 -124 -17 -173 -6 -180 12 -8 3
-46 -14 -57 -7 -5 -5 -8 5 -8 13 0 69 51 69 64 0 3 16 21 35 42 19 20 32 41
28 47 -3 6 -1 7 5 3 8 -4 12 0 12 11 0 15 2 15 9 4 9 -15 -20 -84 -61 -143
-11 -16 -16 -33 -13 -38 4 -6 1 -9 -5 -8 -12 3 -40 -73 -65 -179 -44 -185 -61
-581 -30 -693 22 -82 20 -258 -5 -361 -45 -183 -98 -319 -125 -319 -8 0 -15
-9 -15 -20 0 -11 -7 -23 -16 -27 -11 -4 -14 -13 -9 -30 4 -16 0 -35 -11 -51
-27 -41 -91 -102 -108 -102 -8 0 -18 -5 -21 -10 -3 -6 -17 -10 -30 -10 -14 0
-42 -6 -62 -14 -54 -19 -133 -43 -165 -50 -19 -4 -28 -13 -28 -26 0 -17 5 -19
28 -14 15 3 36 10 47 15 29 14 195 57 308 80 81 17 101 18 114 8 24 -21 68
-11 126 27 61 40 94 46 76 13 -9 -17 -8 -23 2 -30 8 -5 17 -9 20 -9 17 0 322
320 341 358 7 15 36 61 63 102 27 41 56 102 66 135 9 33 24 78 32 101 41 113
68 453 48 598 -7 52 -8 90 -1 115 5 20 12 146 15 281 3 135 8 326 11 425 4 99
6 189 6 200 1 11 5 54 10 95 8 62 6 97 -12 205 -30 180 -80 428 -89 440 -4 6
-9 32 -10 59 -2 27 -14 82 -27 123 -13 40 -24 91 -24 113 0 26 -18 76 -54 153
-53 113 -81 147 -121 147 -11 0 -31 7 -43 16 -13 9 -29 13 -37 10 -8 -3 -17
-1 -20 4 -3 5 4 10 15 12 18 3 15 10 -27 77 l-48 73 -54 -5 c-52 -6 -56 -4
-90 29 -80 77 -158 135 -196 144 -22 6 -58 19 -80 30 -22 11 -48 20 -57 20
-26 0 -39 -33 -32 -84 l7 -45 -37 -7 c-23 -4 -43 -16 -53 -30 -20 -31 -22 -30
-69 7 -31 25 -45 30 -72 25 -46 -7 -72 5 -125 58 -50 51 -63 56 -72 26 -3 -11
-20 -29 -37 -41 l-31 -22 -18 24 c-10 13 -19 29 -19 34 0 18 -44 63 -67 70
-17 5 -31 -2 -57 -28z m704 -11 c0 -11 -19 -15 -25 -6 -3 5 1 10 9 10 9 0 16
-2 16 -4z m-621 -57 c25 -61 26 -69 6 -69 -18 0 -29 -41 -21 -75 8 -33 -15
-33 -69 0 -22 13 -48 25 -58 25 -17 0 -57 -54 -57 -78 0 -17 -40 -51 -59 -52
-8 0 -38 -8 -67 -17 -30 -9 -57 -14 -60 -10 -3 3 3 30 14 59 10 29 18 58 15
64 -2 6 8 31 22 56 25 45 61 68 106 68 11 0 19 3 19 8 0 4 17 6 38 4 45 -4
112 21 112 42 0 13 12 23 31 25 4 1 16 -22 28 -50z m613 11 c2 8 21 6 60 -4
31 -8 67 -12 80 -9 17 3 19 2 9 -5 -16 -11 -7 -32 14 -32 8 0 18 -7 22 -15 11
-19 152 -135 164 -135 5 0 9 7 9 15 0 8 5 15 10 15 6 0 10 -4 10 -10 0 -5 11
-10 24 -10 16 0 35 -14 60 -44 20 -24 36 -49 36 -54 0 -25 54 -72 99 -87 44
-14 51 -21 80 -80 22 -44 37 -62 47 -58 8 3 14 0 14 -6 0 -6 -4 -11 -9 -11 -5
0 -3 -21 5 -46 7 -26 11 -50 8 -55 -3 -5 -2 -9 3 -9 4 0 8 -17 9 -38 0 -49 34
-138 45 -120 6 9 9 9 9 1 0 -6 -4 -14 -8 -17 -10 -6 -2 -65 21 -151 16 -60 26
-113 52 -280 8 -50 22 -124 30 -165 11 -49 14 -96 10 -135 -3 -33 -8 -103 -10
-155 -3 -52 -9 -140 -13 -195 -5 -61 -5 -107 1 -119 9 -18 4 -352 -5 -362 -15
-14 -40 169 -44 326 -4 109 -11 192 -20 219 -8 25 -14 60 -14 79 0 42 -60 259
-80 287 -13 19 -42 100 -47 130 -2 17 -8 44 -13 60 -5 17 -8 56 -6 88 2 32 -3
95 -11 140 -7 45 -16 107 -19 137 -4 30 -11 66 -17 80 -6 14 -13 48 -16 75
l-6 50 -55 0 -55 0 3 30 c2 17 17 59 32 95 41 93 41 95 0 96 -34 0 -35 1 -32
38 5 53 -16 134 -38 146 -29 15 -88 12 -116 -6 -24 -16 -26 -16 -55 12 -17 16
-38 43 -46 59 -25 47 -100 108 -167 135 -52 22 -62 29 -66 55 -3 17 -10 29
-15 27 -6 -2 -12 5 -14 15 -3 14 -1 15 12 5 10 -9 16 -9 19 -2z m-399 -65 c22
-19 46 -35 53 -35 31 0 59 -80 33 -96 -6 -3 -34 10 -62 29 -29 20 -69 43 -89
52 -21 8 -38 20 -38 26 0 10 49 59 58 59 2 0 22 -16 45 -35z m656 -36 c-15 -9
-32 -2 -24 11 3 5 13 6 21 3 12 -4 13 -8 3 -14z m-309 1 c-20 -13 -43 -13 -35
0 3 6 16 10 28 10 18 0 19 -2 7 -10z m-540 -40 c0 -5 -5 -10 -11 -10 -5 0 -7
5 -4 10 3 6 8 10 11 10 2 0 4 -4 4 -10z m1060 -40 c0 -5 -4 -10 -10 -10 -5 0
-10 5 -10 10 0 6 5 10 10 10 6 0 10 -4 10 -10z m-1240 -10 c0 -5 6 -7 14 -4
24 9 68 -21 121 -81 94 -108 106 -130 149 -275 8 -25 32 -106 54 -180 22 -74
46 -164 53 -200 6 -36 18 -74 25 -84 9 -13 10 -25 3 -38 -11 -21 -1 -135 12
-144 5 -3 9 -13 9 -22 0 -15 -2 -15 -10 -2 -9 13 -11 13 -20 0 -5 -8 -10 -25
-11 -37 -2 -35 -4 -41 -11 -48 -8 -8 -57 67 -107 161 -21 40 -56 82 -101 123
-39 34 -82 83 -97 108 -33 56 -73 165 -73 198 0 16 -6 25 -15 25 -8 0 -15 -5
-15 -12 0 -17 -14 0 -42 52 -43 81 -79 132 -97 137 -11 3 -24 25 -35 58 -9 30
-24 61 -32 70 -9 8 -11 15 -6 15 5 0 12 8 14 18 5 16 75 47 131 58 12 2 23 8
25 14 2 5 10 10 17 10 7 0 20 11 28 24 15 22 15 25 -1 31 -12 5 -13 9 -4 12 6
3 10 9 6 14 -3 5 0 9 5 9 6 0 11 -4 11 -10z m455 -30 c3 -5 -1 -10 -9 -10 -9
0 -16 5 -16 10 0 6 4 10 9 10 6 0 13 -4 16 -10z m595 -126 c0 -2 -9 0 -20 6
-11 6 -20 13 -20 16 0 2 9 0 20 -6 11 -6 20 -13 20 -16z m-1365 -126 c-4 -24
-8 -54 -9 -68 -10 -77 -20 -133 -38 -200 -37 -139 -53 -268 -49 -395 0 -11 0
-42 0 -70 -2 -110 2 -175 12 -170 5 4 9 19 9 36 0 69 44 15 70 -87 30 -116 34
-158 15 -174 -17 -14 -21 -95 -5 -105 6 -3 10 -21 10 -39 0 -32 -1 -33 -41
-32 -34 1 -45 -4 -62 -26 -20 -26 -20 -28 -2 -111 20 -96 17 -113 -21 -127
-25 -10 -26 -13 -18 -53 10 -48 9 -290 -1 -315 -4 -9 -7 -43 -7 -75 0 -32 -4
-73 -8 -90 -5 -18 -11 -68 -14 -112 -5 -73 -15 -157 -35 -318 -5 -32 -5 -76
-1 -98 10 -52 -5 -59 -26 -12 -13 28 -17 63 -17 133 7 750 7 916 0 980 -23
220 12 699 64 897 39 147 103 497 95 519 -3 7 0 16 5 20 6 3 24 35 40 70 15
35 31 64 34 64 4 0 3 -19 0 -42z m82 -16 c21 -62 17 -88 -17 -102 -17 -7 -32
-11 -34 -9 -3 2 0 29 5 59 20 116 23 119 46 52z m930 -14 c-3 -7 -5 -2 -5 12
0 14 2 19 5 13 2 -7 2 -19 0 -25z m863 -158 c0 -5 -2 -10 -4 -10 -3 0 -8 5
-11 10 -3 6 -1 10 4 10 6 0 11 -4 11 -10z m30 -109 c0 -5 -7 -11 -15 -15 -9
-3 -15 0 -15 9 0 8 7 15 15 15 8 0 15 -4 15 -9z m-1904 -125 c7 -65 6 -70 -17
-87 -23 -17 -23 -18 -7 -66 23 -68 41 -177 33 -202 -4 -14 -15 -21 -30 -21
-13 0 -27 -4 -30 -10 -3 -5 -11 -10 -16 -10 -7 0 -9 46 -5 136 7 161 14 207
30 197 8 -5 7 -2 -1 8 -11 13 -4 75 13 128 9 28 23 -5 30 -73z m739 -66 c3 -5
1 -10 -4 -10 -6 0 -11 5 -11 10 0 6 2 10 4 10 3 0 8 -4 11 -10z m970 -18 c-3
-3 -11 0 -18 7 -9 10 -8 11 6 5 10 -3 15 -9 12 -12z m-1150 -132 c3 -5 1 -10
-4 -10 -6 0 -11 5 -11 10 0 6 2 10 4 10 3 0 8 -4 11 -10z m1005 -330 c0 -5 -2
-10 -4 -10 -3 0 -8 5 -11 10 -3 6 -1 10 4 10 6 0 11 -4 11 -10z m-103 -262
c-3 -8 -6 -5 -6 6 -1 11 2 17 5 13 3 -3 4 -12 1 -19z m-857 -133 c7 -9 8 -15
2 -15 -5 0 -12 7 -16 15 -3 8 -4 15 -2 15 2 0 9 -7 16 -15z m1254 -31 c3 -9 6
-36 6 -62 0 -64 -22 -40 -26 28 -2 49 8 66 20 34z m36 -144 c0 -5 -4 -10 -10
-10 -5 0 -10 5 -10 10 0 6 5 10 10 10 6 0 10 -4 10 -10z"/>
<path d="M2594 4150 c-8 -8 -8 -28 1 -73 7 -34 16 -86 20 -114 7 -55 20 -69
28 -30 3 16 5 13 6 -10 1 -22 -3 -32 -11 -30 -8 1 -14 -10 -14 -28 -1 -16 -5
-95 -9 -175 -4 -80 -7 -226 -5 -325 l2 -180 31 -60 c18 -33 35 -61 39 -63 4
-2 12 -28 19 -58 9 -41 16 -54 31 -54 19 0 21 10 12 58 -5 22 -11 29 -23 25
-10 -3 -12 -2 -5 4 16 11 25 288 10 303 -8 8 -7 10 6 5 13 -5 17 2 22 32 14
88 16 124 6 118 -6 -3 -10 1 -10 9 0 8 6 13 13 10 14 -5 42 60 32 76 -3 5 1
10 9 10 9 0 23 23 37 60 12 33 26 60 30 60 13 0 12 -9 -17 -106 -14 -49 -27
-114 -29 -144 -1 -30 -5 -62 -8 -70 -3 -8 -13 -53 -22 -100 -9 -47 -19 -94
-22 -105 -3 -11 -6 -80 -8 -153 -2 -132 -2 -134 21 -142 13 -5 24 -17 24 -27
0 -10 5 -35 10 -55 9 -29 17 -38 42 -43 26 -6 34 -3 59 26 37 43 55 97 88 254
5 28 19 90 31 139 12 49 19 95 16 102 -3 7 -1 14 4 16 11 4 21 113 13 146 -3
12 -13 22 -23 22 -15 0 -18 -10 -18 -73 0 -51 -15 -130 -47 -262 -25 -105 -51
-214 -57 -242 -13 -62 -31 -72 -22 -13 6 36 4 40 -14 40 -12 0 -25 -8 -31 -17
-7 -14 -11 -9 -22 28 -7 24 -18 47 -25 51 -18 12 -9 100 31 313 9 44 20 112
25 152 5 40 12 84 16 99 5 19 4 25 -5 20 -6 -4 -11 -1 -11 8 0 10 6 13 15 10
8 -4 15 -2 15 2 1 5 5 29 9 54 10 50 -4 296 -19 335 -6 16 -15 23 -25 19 -8
-3 -15 -1 -15 6 0 6 -10 10 -22 8 -24 -3 -27 -30 -6 -55 15 -19 19 -119 7
-192 -6 -40 -27 -100 -54 -156 -48 -97 -73 -214 -82 -382 -3 -46 -8 -83 -12
-83 -29 0 -43 349 -19 463 5 29 12 70 13 92 4 52 -23 318 -35 351 -6 14 -10
35 -10 48 0 32 -22 60 -36 46z m171 -610 c3 -5 1 -10 -4 -10 -6 0 -11 5 -11
10 0 6 2 10 4 10 3 0 8 -4 11 -10z m-15 -112 c0 -12 -3 -18 -7 -14 -11 10 -12
36 -2 36 5 0 9 -10 9 -22z m-110 -38 c0 -5 -2 -10 -4 -10 -3 0 -8 5 -11 10 -3
6 -1 10 4 10 6 0 11 -4 11 -10z m190 -100 c0 -5 -2 -10 -4 -10 -3 0 -8 5 -11
10 -3 6 -1 10 4 10 6 0 11 -4 11 -10z m-30 -140 c0 -5 -2 -10 -4 -10 -3 0 -8
5 -11 10 -3 6 -1 10 4 10 6 0 11 -4 11 -10z m190 -130 c0 -5 -5 -10 -11 -10
-5 0 -7 5 -4 10 3 6 8 10 11 10 2 0 4 -4 4 -10z m-160 -90 c0 -5 -2 -10 -4
-10 -3 0 -8 5 -11 10 -3 6 -1 10 4 10 6 0 11 -4 11 -10z m80 -100 c0 -5 -5
-10 -11 -10 -5 0 -7 5 -4 10 3 6 8 10 11 10 2 0 4 -4 4 -10z"/>
<path d="M3760 4076 c0 -2 7 -6 15 -10 8 -3 15 -1 15 4 0 6 -7 10 -15 10 -8 0
-15 -2 -15 -4z"/>
<path d="M3810 3390 c0 -5 5 -10 10 -10 6 0 10 5 10 10 0 6 -4 10 -10 10 -5 0
-10 -4 -10 -10z"/>
<path d="M2533 2877 c-17 -36 9 -153 56 -255 49 -107 65 -208 59 -364 -4 -87
-11 -132 -32 -193 -28 -86 -39 -144 -57 -325 -13 -134 -21 -573 -12 -743 5
-113 7 -118 27 -115 19 3 21 9 19 53 -6 141 -1 670 7 740 5 44 11 106 15 137
11 102 27 182 65 318 18 63 21 93 17 190 -6 128 -30 255 -52 280 -8 9 -15 19
-15 22 0 3 -10 27 -22 54 -12 27 -22 56 -23 64 -2 17 -36 154 -40 158 -1 1 -7
-9 -12 -21z"/>
<path d="M55 2800 c3 -5 8 -10 11 -10 2 0 4 5 4 10 0 6 -5 10 -11 10 -5 0 -7
-4 -4 -10z"/>
<path d="M2295 2690 c-3 -6 0 -32 9 -58 22 -71 58 -260 84 -453 18 -131 15
-302 -7 -385 -17 -66 -83 -524 -90 -624 -6 -96 -1 -188 20 -338 11 -81 26
-112 55 -112 16 0 18 12 5 26 -16 15 -31 131 -37 284 -7 153 -10 127 62 580
50 314 55 363 49 445 -6 81 -32 259 -61 415 -22 126 -24 131 -34 125 -5 -3 -8
0 -5 7 6 17 -20 91 -33 96 -6 2 -13 -2 -17 -8z"/>
<path d="M1554 2408 c9 -80 28 -124 50 -111 6 4 3 -4 -7 -17 -46 -66 -48 -150
-3 -238 30 -59 56 -159 56 -216 0 -29 -9 -51 -37 -89 -21 -28 -43 -61 -49 -73
-13 -25 -10 -149 4 -167 5 -7 12 -25 15 -42 8 -43 46 -195 58 -230 6 -16 14
-88 19 -160 6 -84 16 -150 28 -185 24 -66 87 -187 113 -216 11 -11 19 -24 19
-28 0 -4 11 -22 24 -39 13 -18 27 -50 31 -72 9 -51 23 -69 41 -54 8 6 14 18
14 25 0 26 -59 138 -97 186 -44 55 -72 107 -101 193 -16 46 -21 81 -27 203 -5
88 -16 151 -50 281 -69 266 -69 263 11 368 25 32 34 55 34 82 0 66 -20 150
-56 234 -26 61 -34 92 -32 126 3 48 7 50 55 36 42 -13 35 19 -15 71 -32 33
-55 69 -70 112 -13 34 -25 62 -28 62 -2 0 -2 -19 0 -42z"/>
<path d="M2655 1930 c3 -5 8 -10 11 -10 2 0 4 5 4 10 0 6 -5 10 -11 10 -5 0
-7 -4 -4 -10z"/>
</g>
</svg>
